<?xml version="1.0" encoding="UTF-8"?>
<svg xmlns="http://www.w3.org/2000/svg" width="800" height="800" version="1.1" viewBox="0 0 800 800">
  <!-- Generator: Adobe Illustrator 30.1.0, SVG Export Plug-In . SVG Version: 2.1.1 Build 136)  -->
  <g isolation="isolate">
    <g id="Layer_1">
      <rect width="800" height="800" fill="#4aadd8"/>
      <rect x="379.17" width="420.83" height="800" fill="#883391"/>
      <g mix-blend-mode="multiply">
        <path d="M213.64,725.7H0L118.18,57.52l281.82,343.64L681.82,57.52l118.18,668.18h-213.64l-32.73-260-153.64,200.91-153.64-200.91-32.73,260Z" fill="#f45151"/>
      </g>
      <g mix-blend-mode="overlay">
        <path d="M390.91,362.06h338.18c4.84,54.55.75,105.45-12.27,152.73-13.04,47.27-34.09,88.79-63.18,124.55-29.09,35.77-65.77,63.64-110,83.64-44.25,20-95.16,30-152.73,30-53.34,0-102.13-8.18-146.36-24.55-44.25-16.36-82.59-39.69-115-70-32.43-30.3-57.59-66.66-75.46-109.09-17.88-42.41-26.82-89.69-26.82-141.82s9.39-98.93,28.18-140.45c18.78-41.51,45-76.82,78.64-105.91,33.64-29.09,73.03-51.36,118.18-66.82,45.14-15.46,94.39-23.18,147.73-23.18,48.48,0,91.36,7.27,128.64,21.82,37.27,14.55,70,33.79,98.18,57.73,28.18,23.95,52.87,50.77,74.09,80.45l-186.36,83.64c-10.91-20-25.16-37.57-42.73-52.73-17.59-15.14-41.52-22.73-71.82-22.73s-56.97,6.22-81.82,18.64c-24.86,12.43-44.7,31.07-59.55,55.91-14.86,24.86-22.27,56.07-22.27,93.64s6.82,68.79,20.45,95.45c13.64,26.68,32.73,46.97,57.27,60.91,24.55,13.95,53.18,20.91,85.91,20.91,18.18,0,34.55-1.82,49.09-5.45,14.54-3.64,27.12-8.78,37.73-15.46,10.6-6.66,19.84-14.84,27.73-24.55,7.87-9.69,14.55-20.3,20-31.82h-143.64v-145.45Z" fill="#fff800"/>
      </g>
    </g>
  </g>
</svg>